<svg width="20" height="20" viewBox="0 0 20 20" fill="none" xmlns="http://www.w3.org/2000/svg">
<path fill-rule="evenodd" clip-rule="evenodd" d="M3.93658 3C3.94384 3 3.95113 3 3.95843 3L16.3136 3C16.5282 2.99999 16.7252 2.99997 16.89 3.01343C17.0676 3.02794 17.2619 3.06116 17.4538 3.15895C17.7282 3.29877 17.9513 3.52186 18.0911 3.79627C18.1889 3.98819 18.2222 4.1825 18.2367 4.36011C18.2501 4.52484 18.2501 4.72191 18.2501 4.93648V5.57272C18.2501 5.586 18.2501 5.59936 18.2501 5.61281C18.2504 5.77559 18.2507 5.94978 18.2098 6.12027C18.1741 6.26907 18.1152 6.41132 18.0352 6.5418C17.9436 6.69129 17.8202 6.81425 17.7049 6.92915C17.6954 6.93864 17.6859 6.94808 17.6765 6.95747L12.4168 12.2172V16.1343C12.4168 16.154 12.4168 16.1739 12.4169 16.1939C12.4174 16.4309 12.4181 16.6839 12.3371 16.9188C12.2666 17.1232 12.1515 17.3093 12.0003 17.4637C11.8264 17.6413 11.5999 17.7538 11.3876 17.8593C11.3697 17.8682 11.3519 17.877 11.3342 17.8859L10.6427 18.2316C10.3445 18.3807 10.0833 18.5114 9.86418 18.597C9.63987 18.6846 9.37121 18.7625 9.07861 18.7193C8.68178 18.6607 8.32663 18.4412 8.09672 18.1125C7.9272 17.8701 7.87678 17.5949 7.85484 17.3551C7.8334 17.1209 7.83341 16.8288 7.83343 16.4953L7.83343 12.2172L2.57368 6.95747C2.56429 6.94808 2.55482 6.93864 2.54529 6.92915C2.42999 6.81425 2.3066 6.69129 2.21499 6.5418C2.13504 6.41132 2.07611 6.26907 2.04039 6.12027C1.99946 5.94978 1.99976 5.77559 2.00005 5.61281C2.00007 5.59936 2.00009 5.586 2.00009 5.57272V4.95834C2.00009 4.95103 2.00009 4.94375 2.00009 4.93649C2.00008 4.72192 2.00006 4.52485 2.01352 4.36011C2.02804 4.1825 2.06125 3.98819 2.15904 3.79627C2.29886 3.52186 2.52196 3.29877 2.79636 3.15895C2.98828 3.06116 3.18259 3.02794 3.3602 3.01343C3.52494 2.99997 3.72201 2.99999 3.93658 3ZM3.35916 4.27477C3.35913 4.27477 3.35953 4.2746 3.36042 4.27431ZM3.36131 4.27402C3.36871 4.27173 3.39632 4.26465 3.46199 4.25928C3.5696 4.25049 3.71476 4.25 3.95843 4.25H16.2918C16.5354 4.25 16.6806 4.25049 16.7882 4.25928C16.8539 4.26465 16.8815 4.27172 16.8889 4.27402C16.9261 4.29362 16.9565 4.32402 16.9761 4.36122C16.9784 4.36861 16.9855 4.39622 16.9908 4.4619C16.9996 4.5695 17.0001 4.71467 17.0001 4.95834V5.57272C17.0001 5.68007 16.9999 5.74004 16.9979 5.78546C16.9961 5.82514 16.9935 5.83215 16.9943 5.82846C16.9892 5.84972 16.9808 5.87004 16.9694 5.88868C16.9714 5.88544 16.9683 5.89224 16.9415 5.92158C16.9108 5.95516 16.8685 5.99767 16.7926 6.07358L11.3498 11.5164C11.2326 11.6336 11.1668 11.7926 11.1668 11.9583V16.1343C11.1668 16.2914 11.1665 16.381 11.1623 16.4484C11.1597 16.4899 11.1563 16.5072 11.1552 16.5117C11.1452 16.5406 11.1289 16.5668 11.1076 16.5887C11.1041 16.5917 11.0901 16.6025 11.0542 16.6234C10.9958 16.6572 10.9157 16.6976 10.7752 16.7678L10.1085 17.1012C9.77816 17.2664 9.56863 17.3704 9.40939 17.4326C9.31083 17.4711 9.26502 17.4794 9.25206 17.4812C9.20219 17.4715 9.15755 17.4439 9.12659 17.4036C9.12239 17.3912 9.10928 17.3466 9.09963 17.2412C9.08405 17.0709 9.08343 16.837 9.08343 16.4676V11.9583C9.08343 11.7926 9.01758 11.6336 8.90037 11.5164L3.45756 6.07358C3.38165 5.99767 3.33935 5.95516 3.3087 5.92158C3.28193 5.89224 3.27881 5.88544 3.28079 5.88868C3.26937 5.87004 3.26095 5.84972 3.25585 5.82846C3.25674 5.83215 3.25413 5.82514 3.25232 5.78546C3.25024 5.74004 3.25009 5.68007 3.25009 5.57272V4.95834C3.25009 4.71467 3.25058 4.5695 3.25937 4.4619C3.26474 4.39622 3.27182 4.36862 3.27411 4.36122C3.29371 4.32402 3.32411 4.29362 3.36131 4.27402ZM3.27487 4.35906C3.27488 4.35909 3.27473 4.35953 3.2744 4.36033ZM16.9753 4.35906C16.9753 4.35904 16.9755 4.35943 16.9758 4.36031ZM16.891 4.27477C16.891 4.27478 16.8906 4.27464 16.8898 4.27431Z" fill="#666666"/>
</svg>
