<svg width="20" height="20" viewBox="0 0 20 20" fill="none" xmlns="http://www.w3.org/2000/svg">
<path d="M13.1887 10.3992L10.479 13.142C10.2145 13.4098 9.78554 13.4098 9.52099 13.142L6.81131 10.3992C6.54677 10.1314 6.54677 9.6972 6.81131 9.42941C7.07586 9.16162 7.50478 9.16162 7.76933 9.42941L9.32258 11.0017V1.68571C9.32258 1.30701 9.62587 1 10 1C10.3741 1 10.6774 1.30701 10.6774 1.68571V11.0017L12.2307 9.42941C12.4952 9.16162 12.9241 9.16162 13.1887 9.42941C13.4532 9.6972 13.4532 10.1314 13.1887 10.3992Z" fill="#666666"/>
<path d="M4.35484 8.08571C4.35484 7.95948 4.45594 7.85714 4.58065 7.85714H5.48387C5.858 7.85714 6.16129 7.55014 6.16129 7.17143C6.16129 6.79272 5.858 6.48571 5.48387 6.48571H4.58065C3.70768 6.48571 3 7.20206 3 8.08571V15.4C3 16.2837 3.70768 17 4.58065 17H15.4194C16.2923 17 17 16.2837 17 15.4V8.08571C17 7.20206 16.2923 6.48571 15.4194 6.48571H14.5161C14.142 6.48571 13.8387 6.79272 13.8387 7.17143C13.8387 7.55014 14.142 7.85714 14.5161 7.85714H15.4194C15.5441 7.85714 15.6452 7.95948 15.6452 8.08571V15.4C15.6452 15.5262 15.5441 15.6286 15.4194 15.6286H4.58065C4.45594 15.6286 4.35484 15.5262 4.35484 15.4V8.08571Z" fill="#666666"/>
</svg>
