<svg width="20" height="20" viewBox="0 0 20 20" fill="none" xmlns="http://www.w3.org/2000/svg">
<path fill-rule="evenodd" clip-rule="evenodd" d="M6.16976 3.32441C8.38776 2.04299 10.9781 1.99137 13.1507 2.95586C13.466 3.09584 13.6082 3.4651 13.4683 3.78062C13.3285 4.09614 12.9594 4.23845 12.6441 4.09847C10.8208 3.28903 8.65194 3.33374 6.79435 4.40694C3.88886 6.08555 2.78111 9.68343 4.14704 12.6763L4.38624 11.783C4.47552 11.4495 4.818 11.2517 5.1512 11.341C5.48439 11.4304 5.68212 11.7731 5.59284 12.1065L4.98321 14.3832C4.94033 14.5433 4.83565 14.6798 4.6922 14.7627C4.54874 14.8456 4.37826 14.868 4.21825 14.8251L1.94306 14.2151C1.60987 14.1258 1.41214 13.783 1.50142 13.4496C1.5907 13.1162 1.93318 12.9184 2.26637 13.0077L3.01679 13.2089C1.37616 9.63391 2.69717 5.33065 6.16976 3.32441ZM15.0601 5.6163C15.1494 5.28288 15.4918 5.08502 15.825 5.17436L18.1002 5.7844C18.4334 5.87374 18.6312 6.21645 18.5419 6.54987C18.4526 6.88328 18.1101 7.08115 17.7769 6.99181L17.0261 6.79048C18.6671 10.3656 17.3461 14.6692 13.8733 16.6755C11.6553 17.9569 9.06498 18.0086 6.8924 17.0441C6.57709 16.9041 6.43488 16.5348 6.57476 16.2193C6.71465 15.9038 7.08366 15.7615 7.39897 15.9015C9.22228 16.7109 11.3912 16.6662 13.2488 15.593C16.1542 13.9144 17.262 10.3166 15.8961 7.32379L15.6571 8.21653C15.5678 8.54995 15.2253 8.74781 14.8921 8.65847C14.5589 8.56914 14.3612 8.22643 14.4505 7.89301L15.0601 5.6163Z" fill="#666666"/>
</svg>
