<svg width="20" height="20" viewBox="0 0 20 20" fill="none" xmlns="http://www.w3.org/2000/svg">
<path d="M9.24023 3.14905C10.1859 2.20339 11.6732 2.1594 12.5908 3.14905H12.5918L16.5586 7.11585C17.5046 8.06184 17.5483 9.5489 16.5576 10.4664L11.8184 15.2076H16.583C16.9511 15.2076 17.2498 15.5066 17.25 15.8746C17.25 16.2428 16.9512 16.5416 16.583 16.5416H5.958C5.87152 16.5416 5.78529 16.5243 5.7041 16.4909C5.68433 16.4827 5.66622 16.4715 5.64746 16.4616C5.59016 16.4312 5.53455 16.3945 5.48632 16.3463L2.44043 13.3004C1.49487 12.3545 1.45101 10.8673 2.4414 9.94983L2.44043 9.94886L9.24023 3.14905ZM3.38378 10.8922C3.37557 10.9004 3.36703 10.9089 3.35839 10.9166C2.95912 11.2762 2.92153 11.8956 3.38378 12.358L6.23339 15.2076H9.93261L9.97265 15.1657L4.54101 9.73401L3.38378 10.8922ZM11.625 4.06702C11.2654 3.66773 10.6461 3.62994 10.1836 4.09241L5.48437 8.79065L10.916 14.2223L15.6152 9.52405C15.6234 9.51584 15.633 9.50838 15.6416 9.50062C16.0411 9.14105 16.0778 8.52174 15.6152 8.05921L11.6494 4.09241C11.6413 4.08429 11.6327 4.07555 11.625 4.06702Z" fill="#666666"/>
</svg>
