<svg width="20" height="20" viewBox="0 0 20 20" fill="none" xmlns="http://www.w3.org/2000/svg">
<path d="M10.0089 1.875C10.6206 1.88205 11.2298 1.95272 11.8269 2.08587C12.0875 2.14399 12.2824 2.36126 12.312 2.62664L12.4538 3.89901C12.518 4.48322 13.0113 4.9257 13.5993 4.92632C13.7574 4.92656 13.9137 4.89365 14.0598 4.82903L15.227 4.3163C15.4697 4.20966 15.7533 4.2678 15.9346 4.46135C16.778 5.3622 17.4062 6.44262 17.7719 7.62132C17.8507 7.87548 17.76 8.15169 17.5457 8.30959L16.5112 9.07216C16.2161 9.28899 16.0418 9.63334 16.0418 9.99955C16.0418 10.3658 16.2161 10.7101 16.5118 10.9274L17.5473 11.6902C17.7616 11.8481 17.8524 12.1244 17.7735 12.3786C17.408 13.5571 16.7802 14.6374 15.9372 15.5384C15.7562 15.7319 15.4727 15.7902 15.23 15.6839L14.0581 15.1704C13.7228 15.0237 13.3377 15.0452 13.0209 15.2283C12.704 15.4114 12.4932 15.7343 12.4529 16.0981L12.312 17.3703C12.283 17.6327 12.0922 17.8485 11.8355 17.9096C10.6284 18.1968 9.37085 18.1968 8.16381 17.9096C7.90703 17.8485 7.71632 17.6327 7.68727 17.3703L7.54658 16.1C7.50526 15.7369 7.29406 15.415 6.97747 15.2325C6.66087 15.05 6.27645 15.0286 5.94228 15.1745L4.77009 15.688C4.5273 15.7944 4.24381 15.7361 4.06276 15.5424C3.2193 14.6404 2.59144 13.5588 2.22645 12.379C2.14783 12.1249 2.23866 11.8489 2.45282 11.6911L3.48893 10.9278C3.78404 10.7109 3.95834 10.3666 3.95834 10.0004C3.95834 9.63417 3.78404 9.28982 3.48854 9.07271L2.45308 8.3107C2.23861 8.15287 2.14769 7.87648 2.22659 7.62215C2.59221 6.44346 3.2204 5.36304 4.06388 4.46218C4.24511 4.26863 4.52873 4.21049 4.77148 4.31713L5.93846 4.82977C6.27425 4.97713 6.66028 4.95487 6.97859 4.76891C7.29552 4.58507 7.50652 4.26185 7.54725 3.89804L7.68898 2.62664C7.71858 2.36112 7.91367 2.14378 8.17445 2.08579C8.77218 1.95285 9.38207 1.88221 10.0089 1.875ZM10.0091 3.12492C9.63071 3.12937 9.25341 3.16202 8.8803 3.22251L8.78952 4.03682C8.70467 4.79473 8.26547 5.46752 7.60746 5.84919C6.94542 6.23598 6.13825 6.28252 5.43593 5.97431L4.68736 5.64547C4.21075 6.22394 3.8314 6.87613 3.56421 7.5764L4.22905 8.06566C4.84472 8.51801 5.20834 9.23639 5.20834 10.0004C5.20834 10.7644 4.84472 11.4827 4.22969 11.9346L3.56382 12.4252C3.83077 13.1267 4.21018 13.7801 4.68711 14.3597L5.44139 14.0292C6.1398 13.7243 6.94148 13.7689 7.60172 14.1495C8.26196 14.5301 8.70239 15.2015 8.78877 15.9605L8.87957 16.7804C9.62094 16.9065 10.3783 16.9065 11.1197 16.7804L11.2105 15.9606C11.2945 15.2017 11.7344 14.5281 12.3954 14.146C13.0565 13.764 13.8598 13.7192 14.5595 14.0254L15.3131 14.3556C15.7896 13.7769 16.1689 13.1245 16.436 12.4241L15.7711 11.9343C15.1554 11.4819 14.7918 10.7635 14.7918 9.99955C14.7918 9.23556 15.1554 8.51718 15.7703 8.06539L16.4344 7.57591C16.1672 6.87551 15.7878 6.2232 15.3111 5.64463L14.564 5.97281C14.2596 6.10751 13.9303 6.17684 13.5977 6.17632C12.3729 6.17503 11.3451 5.25296 11.2114 4.03652L11.1206 3.22225C10.7493 3.16183 10.376 3.12927 10.0091 3.12492ZM9.99853 6.87496C11.7244 6.87496 13.1235 8.27407 13.1235 9.99996C13.1235 11.7258 11.7244 13.125 9.99853 13.125C8.27264 13.125 6.87353 11.7258 6.87353 9.99996C6.87353 8.27407 8.27264 6.87496 9.99853 6.87496ZM9.99853 8.12496C8.96299 8.12496 8.12353 8.96442 8.12353 9.99996C8.12353 11.0355 8.96299 11.875 9.99853 11.875C11.0341 11.875 11.8735 11.0355 11.8735 9.99996C11.8735 8.96442 11.0341 8.12496 9.99853 8.12496Z" fill="#666666"/>
</svg>
